<?xml version="1.0" encoding="utf-8"?>
<!-- Generator: Adobe Illustrator 19.2.1, SVG Export Plug-In . SVG Version: 6.00 Build 0)  -->
<svg version="1.1" id="Layer_1" xmlns="http://www.w3.org/2000/svg" xmlns:xlink="http://www.w3.org/1999/xlink" x="0px" y="0px"
	 viewBox="0 0 425.2 283.5" style="enable-background:new 0 0 425.2 283.5;" xml:space="preserve">
<style type="text/css">
	.st0{fill:#003063;}
</style>
<path class="st0" d="M157.3,258.2c20.2,0,39.2-5.1,55.7-14c16.4,8.7,35.1,13.7,55,13.7c64.9,0,117.3-52.5,117.3-117.3
	c0-64.8-52.5-117.3-117.3-117.3c-20,0-38.8,5-55.3,13.8c-16.5-8.9-35.4-13.9-55.4-13.9c-64.9,0-117.5,52.6-117.5,117.5
	C39.8,205.7,92.5,258.2,157.3,258.2z M233.5,35.7l3.3,8.6l12.8-3.4l-1.4-8.9c4.5-0.8,9-1.3,13.6-1.6l0.9,9l13.3-0.1l0.9-8.8
	c4.6,0.4,9.1,1,13.6,2l-1.4,8.9l12.9,3.4l3.1-8.2c4.3,1.6,8.5,3.3,12.5,5.4l-3.6,8.2l11.5,6.5l5-7c3.8,2.6,7.3,5.5,10.8,8.4
	l-5.5,6.8l9.4,9.3l6.6-5.5c3,3.5,5.7,7.1,8.2,11l-7,5.1l6.7,11.4l7.8-3.5c1.9,4.1,3.7,8.3,5.1,12.7l-8.1,3.1l3.5,12.8l8.3-1.4
	c0.9,4.4,1.4,8.9,1.7,13.5l-8.5,1l0.1,13.3l8.4,0.8c-0.3,4.3-0.8,8.6-1.7,12.8l-8.6-1.3l-3.2,12.9l8,2.9c-1.5,4.4-3.2,8.6-5.2,12.6
	l-8-3.4l-6.4,11.6l7,4.9c-2.5,3.8-5.3,7.4-8.3,10.9l-6.9-5.4l-9.2,9.5l5.5,6.6c-3.4,3-7,5.8-10.7,8.5l-5.3-7.1l-11.4,6.8l3.7,7.9
	c-4,2.1-8.2,3.9-12.5,5.4l-3.4-8.2l-12.7,3.8l1.6,8.6c-4.4,1-8.9,1.6-13.5,2l-1.2-8.9l-13.3,0.3l-0.7,8.8c-4.6-0.2-9.1-0.8-13.6-1.5
	l1.2-9.1l-12.9-3.1l-3,8.5c-4.7-1.5-9.4-3.4-13.8-5.5c8.7-5.5,16.7-12.1,23.7-19.7c8.2,2.6,16.8,4,25.6,4c20.4,0,40.5-7.8,55.7-21
	H352l-7.5-26c5.5-11.3,8.4-23.8,8.4-36.8c0-22.4-8.7-43.5-24.6-59.3c-15.8-15.8-36.9-24.6-59.3-24.6c-8.7,0-17.3,1.4-25.6,4
	c-7-7.6-15-14.2-23.7-19.7C224.2,39.1,228.8,37.3,233.5,35.7z M213.2,82.9c9.1-4.4,17.8-9.9,25.7-16.5c8,8.7,14.5,18.8,19.4,29.7
	l-13.2,42.7h-30.6v-17.2h-5.3c-0.4-3-0.9-6-1.6-9c5.5-4,9.1-10.5,9.1-17.8C216.8,90.4,215.5,86.3,213.2,82.9z M274,188.1h29.1
	l3.6,15.4h11.7c-13.5,10.4-30.9,17.2-49.3,17.2c-7.8,0-15.4-1.1-22.8-3.3c3.6-4.2,7.6-9.2,10.6-13.9h13.2L274,188.1z M280.9,160.1
	l8-32.9l7.7,32.9H280.9z M316.5,77.7H264l-2.6,8.5c-4.2-8-9.2-15.4-15.1-22.1c7.4-2.2,15-3.2,22.8-3.2c21.4,0,41.4,8.3,56.6,23.4
	c15.1,15.1,23.4,35.2,23.4,56.5c0,11-2.2,21.4-6.2,30.9L316.5,77.7z M214.5,181.6v-39h29.4l-19,60.9h23.3c-2.7,3.8-6,8.1-9.2,11.6
	c-7.6-6.2-15.8-11.6-24.4-15.9V181.6z M236.3,63.6c-7.9,6.4-16.4,11.9-25.5,16.2c-4-4.2-9.7-6.9-16-6.9l-1.6,0
	c-8.5-15.9-19.9-30.4-33.7-42.6C189.5,30.9,216.7,43.5,236.3,63.6z M159.4,35.6c12,11.1,22,24,29.7,38c-8.1,2.2-14.4,8.9-15.9,17.2
	c-4.5,0.6-9.1,0.9-13.7,1V35.6z M159.4,95.6c4.5-0.1,8.9-0.4,13.3-0.8c0,12.1,9.9,22,22,22c3.4,0,6.6-0.7,9.4-2.1
	c0.5,2.3,0.9,4.6,1.2,6.9h-30.9v17.2h-15V95.6z M159.4,142.6h15v39v5.3c-5-0.7-10-1.1-15-1.1V142.6z M159.4,189.7
	c5,0,10.1,0.5,15,1.2v12.7l0,0h17c-7.9,15.5-19,30.3-32,42.4V189.7z M195.7,203.5h1.1h17.7c7.7,4,15,8.8,21.8,14.4
	c-19.6,20.1-46.8,32.6-76.9,33.2C174.5,237.8,187,221.1,195.7,203.5z M78.3,217.9c6.5-5.3,13.9-10.6,21.2-14.4H112v-5.3
	c1.3-0.5,2.7-1,4.1-1.5c8.7,20.2,21.9,38.8,38.7,54.5C124.8,250.5,97.8,237.9,78.3,217.9z M112,194v-8.2c0.8,2.4,1.7,4.8,2.6,7.2
	L112,194z M155.5,245.9c-15.5-14.3-27.6-31.6-35.8-50.5c11.5-3.7,23.6-5.6,35.8-5.8V245.9z M155.5,185.8
	c-12.7,0.2-25.3,2.2-37.3,6.1c-2.6-6.5-4.7-13.1-6.3-19.8v-13h34.8v-16.4h8.7V185.8z M155.5,138.8h-8.7V127H112v-13v-3.4h39.1V95.5
	c1.5,0.1,3,0.1,4.5,0.1V138.8z M155.5,91.8c-1.5,0-3-0.1-4.5-0.1V76.6h-26.8c7.9-15.2,18.4-29.1,31.3-41V91.8z M155.5,30.3
	c-14.9,13.1-26.9,28.9-35.6,46.2H97.7c-6.8-3.7-13.3-8-19.3-13C98,43.4,125.3,30.8,155.5,30.3z M75.7,66.4
	c4.5,3.8,9.3,7.2,14.3,10.2H67.9V114v24.8h-21C47.4,110.9,58.2,85.5,75.7,66.4z M67.9,142.6v60.9h24.3c-5.5,3.2-11.5,7.5-16.5,11.6
	c-17.5-19.2-28.3-44.6-28.7-72.5H67.9z"/>
</svg>
